<svg xmlns="http://www.w3.org/2000/svg" version="1.1" xmlns:xlink="http://www.w3.org/1999/xlink" width="512" height="512" x="0" y="0" viewBox="0 0 512 512" style="enable-background:new 0 0 512 512" xml:space="preserve" class=""><g><path fill="#f3c7cd" d="M274 7.5c-48.3 0-87.5 39.2-87.5 87.5v75c0 9.7 7.8 17.5 17.5 17.5s17.5-7.8 17.5-17.5V95c0-29 23.5-52.5 52.5-52.5S326.5 66 326.5 95v75c0 9.7 7.8 17.5 17.5 17.5s17.5-7.8 17.5-17.5V95c0-48.3-39.2-87.5-87.5-87.5z" opacity="1" data-original="#c8daff" class=""></path><path fill="#f3c7cd" d="M370 112.5h-63.7l-262.2 357-.7 16.7c-.4 10 7.5 18.3 17.5 18.3h324.7z" opacity="1" data-original="#c8daff" class=""></path><path fill="#ffffff" d="m313.6 397.7-7.4-285.2H76.7c-9.4 0-17.1 7.4-17.5 16.7l-8.9 200.3-6.2 140h199.6c39.3 0 71-32.5 69.9-71.8z" opacity="1" data-original="#ffffff" class=""></path><g fill="#c8daff"><path d="m414 423-43.7 77.6c3 2.4 6.8 3.9 11 3.9h69.1c4.7 0 8.9-1.8 12-4.8z" fill="#f3c7cd" opacity="1" data-original="#c8daff" class=""></path><path d="M365.3 112.5c-10 0-17.9 8.3-17.5 18.3l15.9 357c.2 5.2 2.7 9.8 6.5 12.9l46.7-31.1L430 279l-44-166.5z" fill="#f3c7cd" opacity="1" data-original="#c8daff" class=""></path><path d="m467.8 485.4-31.9-357c-.8-9-8.4-15.9-17.4-15.9H386l31 357 45.3 30.2c3.8-3.5 6-8.7 5.5-14.3z" fill="#f3c7cd" opacity="1" data-original="#c8daff" class=""></path></g><path fill="#ffffff" d="M200 7.5c-48.3 0-87.5 39.2-87.5 87.5v75c0 9.7 7.8 17.5 17.5 17.5s17.5-7.8 17.5-17.5V95c0-29 23.5-52.5 52.5-52.5S252.5 66 252.5 95v75c0 9.7 7.8 17.5 17.5 17.5s17.5-7.8 17.5-17.5V95c0-48.3-39.2-87.5-87.5-87.5z" opacity="1" data-original="#ffffff" class=""></path><circle cx="203.5" cy="347" r="87.5" fill="#ffffff" opacity="1" data-original="#ffffff" class=""></circle><path fill="#f3c7cd" d="M218.9 323.3c-8.5 8.5-22.3 8.5-30.8 0s-22.3-8.5-30.8 0-8.5 22.3 0 30.8l30.8 30.8c8.5 8.5 22.3 8.5 30.8 0l30.8-30.8c8.5-8.5 8.5-22.3 0-30.8-8.6-8.5-22.3-8.5-30.8 0z" opacity="1" data-original="#c8daff" class=""></path><g fill="#548cfe"><path d="m475.3 484.8-3.3-37.1c-.4-4.1-4-7.2-8.1-6.8s-7.2 4-6.8 8.1l3.3 37.1c.1 1.1 0 2.1-.2 3.1l-36-24L409.8 299c-.4-4.1-4-7.2-8.1-6.8s-7.2 4-6.8 8.1l14.4 165.3-37.2 24.8c-.4-1-.6-2-.6-3.1l-15.9-357c-.1-2.8.9-5.4 2.8-7.4s4.5-3.1 7.2-3.1h53.2c5.2 0 9.5 3.9 10 9.1l25.4 284.5c.4 4.1 4 7.2 8.1 6.8s7.2-4 6.8-8.1l-25.4-284.5c-1.2-13-11.9-22.8-24.9-22.8H369V95c0-52.4-42.6-95-95-95-12.9 0-25.3 2.5-37 7.5C225.6 2.7 213.1 0 200 0c-52.4 0-95 42.6-95 95v10H76.7c-13.4 0-24.4 10.5-25 23.9l-3.2 70.7c-.2 4.1 3 7.6 7.2 7.8h.3c4 0 7.3-3.1 7.5-7.2l3.2-70.7c.2-5.4 4.6-9.6 10-9.6H105v50c0 13.8 11.2 25 25 25s25-11.2 25-25v-50h90v50c0 13.8 11.2 25 25 25s25-11.2 25-25v-50h47.4c-1.5 3.4-2.2 7.2-2 11.1l15.9 357c.1 3.2.9 6.2 2.1 8.9H60.8c-2.8 0-5.3-1.1-7.2-3.1s-2.9-4.6-2.8-7.4l11.2-251c.2-4.1-3-7.6-7.2-7.8-4.1-.2-7.6 3-7.8 7.2L35.8 485.9c-.3 6.9 2.1 13.4 6.9 18.4s11.2 7.7 18.1 7.7h389.6c7 0 13.7-3 18.4-8.1 4.7-5.2 7.1-12.2 6.5-19.1zM179 95v10h-24V95c0-21.3 14.8-39.1 34.7-43.8-7 13.4-10.7 28.3-10.7 43.8zm66 10h-51V95c0-16 4.6-31.2 13.4-44.4 7 1.2 13.4 4 18.9 7.9-3.7 4.9-6.7 10.3-8.8 16-1.4 3.9.6 8.2 4.5 9.6.8.3 1.7.4 2.5.4 3.1 0 5.9-1.9 7.1-5 1.3-3.6 3.1-7.1 5.3-10.3 5 7.3 8 16.1 8 25.6V105zm35 65c0 5.5-4.5 10-10 10s-10-4.5-10-10V95c0-33.1-26.9-60-60-60s-60 26.9-60 60v75c0 5.5-4.5 10-10 10s-10-4.5-10-10V95c0-44.1 35.9-80 80-80s80 35.9 80 80zm39-65h-24V95c0-15.8-3.9-30.7-10.7-43.8C304.2 55.9 319 73.7 319 95zm35 0h-20V95c0-33.1-26.9-60-60-60h-.4c-5.5-6.7-11.9-12.7-18.9-17.7C261 15.7 267.4 15 274 15c44.1 0 80 35.9 80 80zm35.3 392 27.7-18.5 27.7 18.5z" fill="#ee5f73" opacity="1" data-original="#548cfe" class=""></path><path d="M203.5 442c-52.4 0-95-42.6-95-95s42.6-95 95-95 95 42.6 95 95-42.6 95-95 95zm0-175c-44.1 0-80 35.9-80 80s35.9 80 80 80 80-35.9 80-80-35.9-80-80-80z" fill="#ee5f73" opacity="1" data-original="#548cfe" class=""></path><path d="M203.5 398.7c-7.8 0-15.2-3-20.7-8.6L152 359.3c-11.4-11.4-11.4-30 0-41.4 5.5-5.5 12.9-8.6 20.7-8.6s15.2 3 20.7 8.6c5.6 5.6 14.6 5.6 20.1 0 5.5-5.5 12.9-8.6 20.7-8.6s15.2 3 20.7 8.6c11.4 11.4 11.4 30 0 41.4l-30.8 30.8c-5.4 5.6-12.8 8.6-20.6 8.6zm-30.8-74.2c-3.8 0-7.4 1.5-10.1 4.2-5.6 5.6-5.6 14.6 0 20.1l30.8 30.8c2.7 2.7 6.3 4.2 10.1 4.2s7.4-1.5 10.1-4.2l30.8-30.8c5.6-5.6 5.6-14.6 0-20.1-2.7-2.7-6.3-4.2-10.1-4.2s-7.4 1.5-10.1 4.2c-11.4 11.4-30 11.4-41.4 0-2.7-2.8-6.2-4.2-10.1-4.2z" fill="#ee5f73" opacity="1" data-original="#548cfe" class=""></path></g></g></svg>