<svg id="Capa_1" enable-background="new 0 0 504.235 504.235" height="512" viewBox="0 0 504.235 504.235" width="512" xmlns="http://www.w3.org/2000/svg"><g><g fill="#80aeff"><g><path d="m133.463 361.053c-6.457-10.793-21.219-13.472-32.241-8.624-16.351 7.122-16.129 31.538-2.942 41.693 21.817 16.377 48.531-10.614 35.183-33.069z"/><path d="m140.419 256.797c-1.413-30.116-46.851-27.478-49.518.817-5.192 36.926 51.786 34.064 49.518-.817z"/><path d="m95.059 161.26c15.396 24.553 52.18 4.596 42.06-22.122-13.105-29.208-57.809-7.714-42.06 22.122z"/></g><g><path d="m195.62 147.226c32.187 9.195 66.16 6.941 99.047 3.212 23.844-1.973 50.715.096 74.702.538 0 0 25.367.69 25.367.69 10.789.457 11.443-16.59.526-16.812-40.853-1.335-83.166-8.054-124.085-10.699-11.584-1.208-106.482-1.883-75.557 23.071z"/><path d="m406.311 256.949c-3.315-16.921-25.531-6.229-37.309-7.964-33.485.582-66.97-1.054-100.439-2.054-25.794-.824-51.547-2.335-77.322-3.697-19.546 1.377-17.681 31.218 1.994 30 50.172-3.253 100.407-4.698 150.657-5.841 16.769-.269 33.512-.107 50.219 1.754 6.912.896 13.126-5.251 12.2-12.198z"/><path d="m217.96 360.446c-8.008 1.726-16.868 3.881-24.875 5.845-4.452 1.512-10.776 1.548-12.671 6.784-2.661 8.088 6.822 10.219 12.671 11.526 8.021 1.964 16.854 4.115 24.875 5.845 24.552 4.206 24.592-34.201 0-30z"/></g><path d="m501.209 84.697c-7.992-87.318-94.572-89.432-163.169-81.956-7.77.767-15.936 1.811-23.693 2.851-22.021 3.969-43.599 3.64-66.33 2.761-81.13-2.638-218.954-26.544-237.786 83.025-5.558 2.844-8.97 9.001-8.011 15.523 3.55 25.077 6.03 50.313 7.367 75.629 4.016 63.93-2.055 127.468-6.79 191.331-1.768 33.75-4.19 74.243 23.106 99.29 36.443 30.397 91.085 28.379 135.993 30.707 38.776.882 77.673-.047 116.41-.167 6.309-.007 11.387-5.489 10.843-11.796-.483-6.012-5.748-10.493-11.76-10.01-25.593 2.05-51.215 3.304-76.796 3.813-25.456.521-51.043.22-76.354-1.797-113.927-8.29-106.416-49.073-95.977-146.66 5.75-51.443 9.475-103.754 8.401-155.685-.479-26.129-2.161-52.23-4.66-78.247-.351-3.859-2.254-7.415-4.985-9.804 21.75-116.49 208.383-49.507 290.649-64.948 36.261-2.955 75.346-4.903 110.186 5.036 26.295 6.374 41.995 28.39 43.646 54.874 5.085 60.899-5.288 122.737 7.22 183.531 1.428 9.899 17.307 8.652 16.839-1.632-.331-15.143-.364-30.279.342-45.417 1.112-46.714 9.613-93.253 5.309-140.252z"/></g><path d="m490.955 375.528c-5.594-48.548-64.277-67.8-93.079-25.863-15.006-30.105-56.855-37.754-84.768-21.706-30.279 15.887-37.627 58.119-20.632 86.264 15.917 26.771 44.97 40.664 69.048 58.683 9.606 7.071 19.282 14.878 25.993 24.498 2.666 3.865 7.992 4.813 11.825 2.097 48.796-20.528 98.141-66.273 91.613-123.973zm-23.55 8.331c-7.673 40.903-43.626 68.565-72.269 95.936-22.91-26.203-57.268-40.371-78.631-67.718-10.818-13.672-11.27-32.867-1.868-47.179 17.133-23.995 63.531-19.878 70.869 11.335-.757 9.296 13.397 12.265 16.346 3.258 5.303-15.85 16.359-33.102 34.296-34.163 20.415-1.341 34.574 18.981 31.257 38.531z" fill="#ffb6bd"/></g></svg>